<?xml version="1.0" encoding="UTF-8"?>
<svg width="147px" height="93px" viewBox="0 0 147 93" version="1.1" xmlns="http://www.w3.org/2000/svg" xmlns:xlink="http://www.w3.org/1999/xlink">
    <!-- Generator: Sketch 48.2 (47327) - http://www.bohemiancoding.com/sketch -->
    <title>logo</title>
    <desc>Created with Sketch.</desc>
    <defs></defs>
    <g id="Page-1" stroke="none" stroke-width="1" fill="none" fill-rule="evenodd">
        <g id="logo" fill-rule="nonzero">
            <g id="XMLID_10_">
                <g id="XMLID_2_">
                    <g id="XMLID_188_" transform="translate(82.340206, 36.371134)" fill="#FFFFFF">
                        <rect id="XMLID_56_" x="0.227319588" y="0.202061856" width="2.62680412" height="13.5128866"></rect>
                        <polygon id="XMLID_55_" points="13.3360825 13.7149485 7.9814433 5.40515464 7.9814433 13.7149485 5.32938144 13.7149485 5.32938144 0.202061856 7.70360825 0.202061856 13.0582474 8.46134021 13.0582474 0.202061856 15.6850515 0.202061856 15.6850515 13.7149485"></polygon>
                        <path d="M22.9845361,4.16752577 L21.2670103,9.09278351 L24.6262887,9.09278351 L22.9845361,4.16752577 Z M26.1417526,13.7149485 L25.3335052,11.3154639 L20.5345361,11.3154639 L19.7262887,13.7149485 L16.9731959,13.7149485 L21.8984536,0.202061856 L23.9695876,0.202061856 L28.8948454,13.7149485 L26.1417526,13.7149485 Z" id="XMLID_52_"></path>
                        <path d="M36.8005155,3.38453608 C36.3458763,2.82886598 35.7396907,2.55103093 34.8304124,2.55103093 L32.8350515,2.55103093 L32.8350515,11.3659794 L34.8304124,11.3659794 C35.7396907,11.3659794 36.3458763,11.0881443 36.8005155,10.5324742 C37.3056701,9.92628866 37.3814433,8.96649485 37.3814433,6.89536082 C37.3561856,4.84948454 37.2804124,3.99072165 36.8005155,3.38453608 M38.6443299,12.4015464 C37.7603093,13.285567 36.4721649,13.6896907 35.0829897,13.6896907 L30.2082474,13.6896907 L30.2082474,0.176804124 L35.0829897,0.176804124 C36.4974227,0.176804124 37.7603093,0.580927835 38.6443299,1.46494845 C40.1597938,2.98041237 40.0082474,4.84948454 40.0082474,6.87010309 C40.0082474,8.91597938 40.1597938,10.8860825 38.6443299,12.4015464" id="XMLID_107_"></path>
                        <path d="M48.5453608,3.15721649 C48.1664948,2.72783505 47.585567,2.42474227 46.8530928,2.42474227 C46.1206186,2.42474227 45.514433,2.70257732 45.135567,3.15721649 C44.6304124,3.73814433 44.478866,4.3443299 44.478866,6.94587629 C44.478866,9.54742268 44.6051546,10.178866 45.135567,10.7345361 C45.514433,11.1639175 46.1206186,11.4670103 46.8530928,11.4670103 C47.585567,11.4670103 48.1664948,11.1891753 48.5453608,10.7345361 C49.0505155,10.1536082 49.2020619,9.54742268 49.2020619,6.94587629 C49.2020619,4.3443299 49.0505155,3.7128866 48.5453608,3.15721649 M50.4902062,12.3257732 C49.5304124,13.285567 48.3938144,13.8159794 46.8530928,13.8159794 C45.3123711,13.8159794 44.1505155,13.285567 43.1907216,12.3257732 C41.8268041,10.9618557 41.8520619,9.26958763 41.8520619,6.94587629 C41.8520619,4.62216495 41.8015464,2.92989691 43.1907216,1.56597938 C44.1505155,0.606185567 45.3123711,0.0757731959 46.8530928,0.0757731959 C48.3938144,0.0757731959 49.5556701,0.606185567 50.4902062,1.56597938 C51.8541237,2.92989691 51.828866,4.62216495 51.828866,6.94587629 C51.828866,9.29484536 51.8541237,10.9618557 50.4902062,12.3257732" id="XMLID_104_"></path>
                        <path d="M59.1536082,2.55103093 L56.6530928,2.55103093 L56.6530928,6.13762887 L59.1536082,6.13762887 C60.3154639,6.13762887 61.0731959,5.40515464 61.0731959,4.3443299 C61.0731959,3.30876289 60.3154639,2.55103093 59.1536082,2.55103093 Z M61.1994845,13.7654639 L58.5474227,8.36030928 L56.6530928,8.36030928 L56.6530928,13.7654639 L54.0010309,13.7654639 L54.0010309,0.202061856 L59.3304124,0.202061856 C62.0835052,0.202061856 63.7252577,2.09639175 63.7252577,4.36958763 C63.7252577,6.26391753 62.5634021,7.45103093 61.25,7.93092784 L64.2809278,13.7907216 L61.1994845,13.7907216 L61.1994845,13.7654639 Z" id="XMLID_1_"></path>
                    </g>
                    <g id="XMLID_187_">
                        <path d="M18.0340206,10.0778351 C17.9329897,10.6840206 17.2510309,11.3407216 16.6701031,11.4417526 C15.735567,11.6185567 15.2809278,11.6185567 14.3463918,11.4417526 C13.7402062,11.3407216 13.0835052,10.6587629 12.9824742,10.0778351 C12.8056701,9.14329897 12.8056701,8.68865979 12.9824742,7.75412371 C13.0835052,7.14793814 13.7654639,6.49123711 14.3463918,6.39020619 C15.2809278,6.21340206 15.735567,6.21340206 16.6701031,6.39020619 C17.2762887,6.49123711 17.9329897,7.17319588 18.0340206,7.75412371 C18.185567,8.68865979 18.185567,9.1685567 18.0340206,10.0778351" id="XMLID_186_" fill="#E86B1F"></path>
                        <path d="M18.0340206,16.3417526 C17.9329897,16.9479381 17.2510309,17.6046392 16.6701031,17.7056701 C15.735567,17.8824742 15.2809278,17.8824742 14.3463918,17.7056701 C13.7402062,17.6046392 13.0835052,16.9226804 12.9824742,16.3417526 C12.8056701,15.4072165 12.8056701,14.9525773 12.9824742,14.0180412 C13.0835052,13.4118557 13.7654639,12.7551546 14.3463918,12.6541237 C15.2809278,12.4773196 15.735567,12.4773196 16.6701031,12.6541237 C17.2762887,12.7551546 17.9329897,13.4371134 18.0340206,14.0180412 C18.185567,14.9525773 18.185567,15.4072165 18.0340206,16.3417526" id="XMLID_185_" fill="#F1A21E"></path>
                        <path d="M11.7701031,10.0778351 C11.6690722,10.6840206 10.9871134,11.3407216 10.4061856,11.4417526 C9.47164948,11.6185567 9.01701031,11.6185567 8.08247423,11.4417526 C7.47628866,11.3407216 6.81958763,10.6587629 6.7185567,10.0778351 C6.54175258,9.14329897 6.54175258,8.68865979 6.7185567,7.75412371 C6.81958763,7.14793814 7.50154639,6.49123711 8.08247423,6.39020619 C9.01701031,6.21340206 9.47164948,6.21340206 10.4061856,6.39020619 C11.0123711,6.49123711 11.6690722,7.17319588 11.7701031,7.75412371 C11.9469072,8.68865979 11.9469072,9.1685567 11.7701031,10.0778351" id="XMLID_184_" fill="#C73F33"></path>
                        <path d="M18.0087629,3.83917526 C17.907732,4.44536082 17.2257732,5.10206186 16.6448454,5.20309278 C15.7103093,5.37989691 15.2556701,5.37989691 14.321134,5.20309278 C13.7149485,5.10206186 13.0582474,4.42010309 12.9572165,3.83917526 C12.7804124,2.90463918 12.7804124,2.45 12.9572165,1.51546392 C13.0582474,0.909278351 13.7402062,0.25257732 14.321134,0.151546392 C15.2556701,-0.025257732 15.7103093,-0.025257732 16.6448454,0.151546392 C17.2510309,0.25257732 17.907732,0.934536082 18.0087629,1.51546392 C18.185567,2.45 18.185567,2.90463918 18.0087629,3.83917526" id="XMLID_183_" fill="#C73F33"></path>
                        <path d="M11.7701031,16.3417526 C11.6690722,16.9479381 10.9871134,17.6046392 10.4061856,17.7056701 C9.47164948,17.8824742 9.01701031,17.8824742 8.08247423,17.7056701 C7.47628866,17.6046392 6.81958763,16.9226804 6.7185567,16.3417526 C6.54175258,15.4072165 6.54175258,14.9525773 6.7185567,14.0180412 C6.81958763,13.4118557 7.50154639,12.7551546 8.08247423,12.6541237 C9.01701031,12.4773196 9.47164948,12.4773196 10.4061856,12.6541237 C11.0123711,12.7551546 11.6690722,13.4371134 11.7701031,14.0180412 C11.9469072,14.9525773 11.9469072,15.4072165 11.7701031,16.3417526" id="XMLID_182_" fill="#E86B1F"></path>
                        <path d="M5.32938144,16.4175258 C5.22835052,17.0237113 4.54639175,17.6804124 3.96546392,17.7814433 C3.03092784,17.9582474 2.57628866,17.9582474 1.64175258,17.7814433 C1.03556701,17.6804124 0.378865979,16.9984536 0.277835052,16.4175258 C0.101030928,15.4829897 0.101030928,15.0283505 0.277835052,14.0938144 C0.378865979,13.4876289 1.06082474,12.8309278 1.64175258,12.7298969 C2.57628866,12.5530928 3.03092784,12.5530928 3.96546392,12.7298969 C4.57164948,12.8309278 5.22835052,13.5128866 5.32938144,14.0938144 C5.48092784,15.0283505 5.48092784,15.5082474 5.32938144,16.4175258" id="XMLID_181_" fill="#C73F33"></path>
                        <path d="M11.7701031,22.5804124 C11.6690722,23.1865979 10.9871134,23.843299 10.4061856,23.9443299 C9.47164948,24.121134 9.01701031,24.121134 8.08247423,23.9443299 C7.47628866,23.843299 6.81958763,23.1613402 6.7185567,22.5804124 C6.54175258,21.6458763 6.54175258,21.1912371 6.7185567,20.256701 C6.81958763,19.6505155 7.50154639,18.9938144 8.08247423,18.8927835 C9.01701031,18.7159794 9.47164948,18.7159794 10.4061856,18.8927835 C11.0123711,18.9938144 11.6690722,19.6757732 11.7701031,20.256701 C11.9469072,21.1912371 11.9469072,21.6458763 11.7701031,22.5804124" id="XMLID_180_" fill="#F1A21E"></path>
                        <path d="M11.7701031,35.0829897 C11.6690722,35.6891753 10.9871134,36.3458763 10.4061856,36.4469072 C9.47164948,36.6237113 9.01701031,36.6237113 8.08247423,36.4469072 C7.47628866,36.3458763 6.81958763,35.6639175 6.7185567,35.0829897 C6.54175258,34.1484536 6.54175258,33.6938144 6.7185567,32.7592784 C6.81958763,32.1530928 7.50154639,31.4963918 8.08247423,31.3953608 C9.01701031,31.2185567 9.47164948,31.2185567 10.4061856,31.3953608 C11.0123711,31.4963918 11.6690722,32.1783505 11.7701031,32.7592784 C11.9469072,33.6938144 11.9469072,34.1484536 11.7701031,35.0829897" id="XMLID_179_" fill="#7AA52A"></path>
                        <path d="M11.7701031,41.3216495 C11.6690722,41.9278351 10.9871134,42.5845361 10.4061856,42.685567 C9.47164948,42.8623711 9.01701031,42.8623711 8.08247423,42.685567 C7.47628866,42.5845361 6.81958763,41.9025773 6.7185567,41.3216495 C6.54175258,40.3871134 6.54175258,39.9324742 6.7185567,38.9979381 C6.81958763,38.3917526 7.50154639,37.7350515 8.08247423,37.6340206 C9.01701031,37.4572165 9.47164948,37.4572165 10.4061856,37.6340206 C11.0123711,37.7350515 11.6690722,38.4170103 11.7701031,38.9979381 C11.9469072,39.9324742 11.9469072,40.4123711 11.7701031,41.3216495" id="XMLID_178_" fill="#7AA52A"></path>
                        <path d="M18.0340206,22.5804124 C17.9329897,23.1865979 17.2510309,23.843299 16.6701031,23.9443299 C15.735567,24.121134 15.2809278,24.121134 14.3463918,23.9443299 C13.7402062,23.843299 13.0835052,23.1613402 12.9824742,22.5804124 C12.8056701,21.6458763 12.8056701,21.1912371 12.9824742,20.256701 C13.0835052,19.6505155 13.7654639,18.9938144 14.3463918,18.8927835 C15.2809278,18.7159794 15.735567,18.7159794 16.6701031,18.8927835 C17.2762887,18.9938144 17.9329897,19.6757732 18.0340206,20.256701 C18.185567,21.1912371 18.185567,21.6458763 18.0340206,22.5804124" id="XMLID_177_" fill="#E86B1F"></path>
                        <path d="M18.0340206,28.8443299 C17.9329897,29.4505155 17.2510309,30.1072165 16.6701031,30.2082474 C15.735567,30.3850515 15.2809278,30.3850515 14.3463918,30.2082474 C13.7402062,30.1072165 13.0835052,29.4252577 12.9824742,28.8443299 C12.8056701,27.9097938 12.8056701,27.4551546 12.9824742,26.5206186 C13.0835052,25.914433 13.7654639,25.257732 14.3463918,25.156701 C15.2809278,24.9798969 15.735567,24.9798969 16.6701031,25.156701 C17.2762887,25.257732 17.9329897,25.9396907 18.0340206,26.5206186 C18.185567,27.4298969 18.185567,27.9097938 18.0340206,28.8443299" id="XMLID_176_" fill="#F1A21E"></path>
                        <path d="M18.0340206,35.0829897 C17.9329897,35.6891753 17.2510309,36.3458763 16.6701031,36.4469072 C15.735567,36.6237113 15.2809278,36.6237113 14.3463918,36.4469072 C13.7402062,36.3458763 13.0835052,35.6639175 12.9824742,35.0829897 C12.8056701,34.1484536 12.8056701,33.6938144 12.9824742,32.7592784 C13.0835052,32.1530928 13.7654639,31.4963918 14.3463918,31.3953608 C15.2809278,31.2185567 15.735567,31.2185567 16.6701031,31.3953608 C17.2762887,31.4963918 17.9329897,32.1783505 18.0340206,32.7592784 C18.185567,33.6938144 18.185567,34.1484536 18.0340206,35.0829897" id="XMLID_175_" fill="#BDB700"></path>
                        <path d="M18.0340206,47.585567 C17.9329897,48.1917526 17.2510309,48.8484536 16.6701031,48.9494845 C15.735567,49.1262887 15.2809278,49.1262887 14.3463918,48.9494845 C13.7402062,48.8484536 13.0835052,48.1664948 12.9824742,47.585567 C12.8056701,46.6510309 12.8056701,46.1963918 12.9824742,45.2618557 C13.0835052,44.6556701 13.7654639,43.9989691 14.3463918,43.8979381 C15.2809278,43.721134 15.735567,43.721134 16.6701031,43.8979381 C17.2762887,43.9989691 17.9329897,44.6809278 18.0340206,45.2618557 C18.185567,46.1963918 18.185567,46.6510309 18.0340206,47.585567" id="XMLID_174_" fill="#7AA52A"></path>
                        <path d="M18.0340206,53.8242268 C17.9329897,54.4304124 17.2510309,55.0871134 16.6701031,55.1881443 C15.735567,55.3649485 15.2809278,55.3649485 14.3463918,55.1881443 C13.7402062,55.0871134 13.0835052,54.4051546 12.9824742,53.8242268 C12.8056701,52.8896907 12.8056701,52.4350515 12.9824742,51.5005155 C13.0835052,50.8943299 13.7654639,50.2376289 14.3463918,50.1365979 C15.2809278,49.9597938 15.735567,49.9597938 16.6701031,50.1365979 C17.2762887,50.2376289 17.9329897,50.9195876 18.0340206,51.5005155 C18.185567,52.4350515 18.185567,52.8896907 18.0340206,53.8242268" id="XMLID_173_" fill="#20AB6C"></path>
                        <path d="M18.0340206,60.0881443 C17.9329897,60.6943299 17.2510309,61.3510309 16.6701031,61.4520619 C15.735567,61.628866 15.2809278,61.628866 14.3463918,61.4520619 C13.7402062,61.3510309 13.0835052,60.6690722 12.9824742,60.0881443 C12.8056701,59.1536082 12.8056701,58.6989691 12.9824742,57.764433 C13.0835052,57.1582474 13.7654639,56.5015464 14.3463918,56.4005155 C15.2809278,56.2237113 15.735567,56.2237113 16.6701031,56.4005155 C17.2762887,56.5015464 17.9329897,57.1835052 18.0340206,57.764433 C18.185567,58.6989691 18.185567,59.1536082 18.0340206,60.0881443" id="XMLID_172_" fill="#59978A"></path>
                        <path d="M18.0087629,66.3268041 C17.907732,66.9329897 17.2257732,67.5896907 16.6448454,67.6907216 C15.7103093,67.8675258 15.2556701,67.8675258 14.321134,67.6907216 C13.7149485,67.5896907 13.0582474,66.907732 12.9572165,66.3268041 C12.7804124,65.392268 12.7804124,64.9376289 12.9572165,64.0030928 C13.0582474,63.3969072 13.7402062,62.7402062 14.321134,62.6391753 C15.2556701,62.4623711 15.7103093,62.4623711 16.6448454,62.6391753 C17.2510309,62.7402062 17.907732,63.4221649 18.0087629,64.0030928 C18.185567,64.9376289 18.185567,65.392268 18.0087629,66.3268041" id="XMLID_171_" fill="#59978A"></path>
                        <path d="M11.7701031,47.585567 C11.6690722,48.1917526 10.9871134,48.8484536 10.4061856,48.9494845 C9.47164948,49.1262887 9.01701031,49.1262887 8.08247423,48.9494845 C7.47628866,48.8484536 6.81958763,48.1664948 6.7185567,47.585567 C6.54175258,46.6510309 6.54175258,46.1963918 6.7185567,45.2618557 C6.81958763,44.6556701 7.50154639,43.9989691 8.08247423,43.8979381 C9.01701031,43.721134 9.47164948,43.721134 10.4061856,43.8979381 C11.0123711,43.9989691 11.6690722,44.6809278 11.7701031,45.2618557 C11.9469072,46.1963918 11.9469072,46.6510309 11.7701031,47.585567" id="XMLID_170_" fill="#20AB6C"></path>
                        <path d="M11.7701031,53.8242268 C11.6690722,54.4304124 10.9871134,55.0871134 10.4061856,55.1881443 C9.47164948,55.3649485 9.01701031,55.3649485 8.08247423,55.1881443 C7.47628866,55.0871134 6.81958763,54.4051546 6.7185567,53.8242268 C6.54175258,52.8896907 6.54175258,52.4350515 6.7185567,51.5005155 C6.81958763,50.8943299 7.50154639,50.2376289 8.08247423,50.1365979 C9.01701031,49.9597938 9.47164948,49.9597938 10.4061856,50.1365979 C11.0123711,50.2376289 11.6690722,50.9195876 11.7701031,51.5005155 C11.9469072,52.4350515 11.9469072,52.8896907 11.7701031,53.8242268" id="XMLID_169_" fill="#59978A"></path>
                        <path d="M11.7701031,60.0881443 C11.6690722,60.6943299 10.9871134,61.3510309 10.4061856,61.4520619 C9.47164948,61.628866 9.01701031,61.628866 8.08247423,61.4520619 C7.47628866,61.3510309 6.81958763,60.6690722 6.7185567,60.0881443 C6.54175258,59.1536082 6.54175258,58.6989691 6.7185567,57.764433 C6.81958763,57.1582474 7.50154639,56.5015464 8.08247423,56.4005155 C9.01701031,56.2237113 9.47164948,56.2237113 10.4061856,56.4005155 C11.0123711,56.5015464 11.6690722,57.1835052 11.7701031,57.764433 C11.9469072,58.6989691 11.9469072,59.1536082 11.7701031,60.0881443" id="XMLID_168_" fill="#20AB6C"></path>
                        <path d="M11.7701031,66.3268041 C11.6690722,66.9329897 10.9871134,67.5896907 10.4061856,67.6907216 C9.47164948,67.8675258 9.01701031,67.8675258 8.08247423,67.6907216 C7.47628866,67.5896907 6.81958763,66.907732 6.7185567,66.3268041 C6.54175258,65.392268 6.54175258,64.9376289 6.7185567,64.0030928 C6.81958763,63.3969072 7.50154639,62.7402062 8.08247423,62.6391753 C9.01701031,62.4623711 9.47164948,62.4623711 10.4061856,62.6391753 C11.0123711,62.7402062 11.6690722,63.4221649 11.7701031,64.0030928 C11.9469072,64.9376289 11.9469072,65.392268 11.7701031,66.3268041" id="XMLID_167_" fill="#009FAD"></path>
                        <path d="M11.7701031,72.5654639 C11.6690722,73.1716495 10.9871134,73.8283505 10.4061856,73.9293814 C9.47164948,74.1061856 9.01701031,74.1061856 8.08247423,73.9293814 C7.47628866,73.8283505 6.81958763,73.1463918 6.7185567,72.5654639 C6.54175258,71.6309278 6.54175258,71.1762887 6.7185567,70.2417526 C6.81958763,69.635567 7.50154639,68.978866 8.08247423,68.8778351 C9.01701031,68.7010309 9.47164948,68.7010309 10.4061856,68.8778351 C11.0123711,68.978866 11.6690722,69.6608247 11.7701031,70.2417526 C11.9469072,71.1762887 11.9469072,71.6309278 11.7701031,72.5654639" id="XMLID_166_" fill="#009FAD"></path>
                        <path d="M18.0340206,72.5654639 C17.9329897,73.1716495 17.2510309,73.8283505 16.6701031,73.9293814 C15.735567,74.1061856 15.2809278,74.1061856 14.3463918,73.9293814 C13.7402062,73.8283505 13.0835052,73.1463918 12.9824742,72.5654639 C12.8056701,71.6309278 12.8056701,71.1762887 12.9824742,70.2417526 C13.0835052,69.635567 13.7654639,68.978866 14.3463918,68.8778351 C15.2809278,68.7010309 15.735567,68.7010309 16.6701031,68.8778351 C17.2762887,68.978866 17.9329897,69.6608247 18.0340206,70.2417526 C18.185567,71.1762887 18.185567,71.6309278 18.0340206,72.5654639" id="XMLID_165_" fill="#1F4850"></path>
                        <path d="M24.2726804,72.5654639 C24.1716495,73.1716495 23.4896907,73.8283505 22.9087629,73.9293814 C21.9742268,74.1061856 21.5195876,74.1061856 20.5850515,73.9293814 C19.978866,73.8283505 19.3221649,73.1463918 19.221134,72.5654639 C19.0443299,71.6309278 19.0443299,71.1762887 19.221134,70.2417526 C19.3221649,69.635567 20.0041237,68.978866 20.5850515,68.8778351 C21.5195876,68.7010309 21.9742268,68.7010309 22.9087629,68.8778351 C23.5149485,68.978866 24.1716495,69.6608247 24.2726804,70.2417526 C24.4494845,71.1762887 24.4494845,71.6309278 24.2726804,72.5654639" id="XMLID_164_" fill="#75ABB4"></path>
                        <path d="M18.0340206,78.8293814 C17.9329897,79.435567 17.2510309,80.092268 16.6701031,80.193299 C15.735567,80.3701031 15.2809278,80.3701031 14.3463918,80.193299 C13.7402062,80.092268 13.0835052,79.4103093 12.9824742,78.8293814 C12.8056701,77.8948454 12.8056701,77.4402062 12.9824742,76.5056701 C13.0835052,75.8994845 13.7654639,75.2427835 14.3463918,75.1417526 C15.2809278,74.9649485 15.735567,74.9649485 16.6701031,75.1417526 C17.2762887,75.2427835 17.9329897,75.9247423 18.0340206,76.5056701 C18.185567,77.4149485 18.185567,77.8948454 18.0340206,78.8293814" id="XMLID_163_" fill="#1F4850"></path>
                        <path d="M18.0087629,85.0680412 C17.907732,85.6742268 17.2257732,86.3309278 16.6448454,86.4319588 C15.7103093,86.6087629 15.2556701,86.6087629 14.321134,86.4319588 C13.7149485,86.3309278 13.0582474,85.6489691 12.9572165,85.0680412 C12.7804124,84.1335052 12.7804124,83.678866 12.9572165,82.7443299 C13.0582474,82.1381443 13.7402062,81.4814433 14.321134,81.3804124 C15.2556701,81.2036082 15.7103093,81.2036082 16.6448454,81.3804124 C17.2510309,81.4814433 17.907732,82.1634021 18.0087629,82.7443299 C18.185567,83.678866 18.185567,84.1335052 18.0087629,85.0680412" id="XMLID_162_" fill="#007077"></path>
                        <path d="M24.2726804,78.8293814 C24.1716495,79.435567 23.4896907,80.092268 22.9087629,80.193299 C21.9742268,80.3701031 21.5195876,80.3701031 20.5850515,80.193299 C19.978866,80.092268 19.3221649,79.4103093 19.221134,78.8293814 C19.0443299,77.8948454 19.0443299,77.4402062 19.221134,76.5056701 C19.3221649,75.8994845 20.0041237,75.2427835 20.5850515,75.1417526 C21.5195876,74.9649485 21.9742268,74.9649485 22.9087629,75.1417526 C23.5149485,75.2427835 24.1716495,75.9247423 24.2726804,76.5056701 C24.4494845,77.4149485 24.4494845,77.8948454 24.2726804,78.8293814" id="XMLID_161_" fill="#007077"></path>
                        <path d="M24.2726804,85.0680412 C24.1716495,85.6742268 23.4896907,86.3309278 22.9087629,86.4319588 C21.9742268,86.6087629 21.5195876,86.6087629 20.5850515,86.4319588 C19.978866,86.3309278 19.3221649,85.6489691 19.221134,85.0680412 C19.0443299,84.1335052 19.0443299,83.678866 19.221134,82.7443299 C19.3221649,82.1381443 20.0041237,81.4814433 20.5850515,81.3804124 C21.5195876,81.2036082 21.9742268,81.2036082 22.9087629,81.3804124 C23.5149485,81.4814433 24.1716495,82.1634021 24.2726804,82.7443299 C24.4494845,83.678866 24.4494845,84.1335052 24.2726804,85.0680412" id="XMLID_160_" fill="#1F4850"></path>
                        <path d="M24.2726804,91.306701 C24.1716495,91.9128866 23.4896907,92.5695876 22.9087629,92.6706186 C21.9742268,92.8474227 21.5195876,92.8474227 20.5850515,92.6706186 C19.978866,92.5695876 19.3221649,91.8876289 19.221134,91.306701 C19.0443299,90.3721649 19.0443299,89.9175258 19.221134,88.9829897 C19.3221649,88.3768041 20.0041237,87.7201031 20.5850515,87.6190722 C21.5195876,87.442268 21.9742268,87.442268 22.9087629,87.6190722 C23.5149485,87.7201031 24.1716495,88.4020619 24.2726804,88.9829897 C24.4494845,89.9175258 24.4494845,90.3974227 24.2726804,91.306701" id="XMLID_159_" fill="#2F7195"></path>
                        <path d="M24.2726804,28.8443299 C24.1716495,29.4505155 23.4896907,30.1072165 22.9087629,30.2082474 C21.9742268,30.3850515 21.5195876,30.3850515 20.5850515,30.2082474 C19.978866,30.1072165 19.3221649,29.4252577 19.221134,28.8443299 C19.0443299,27.9097938 19.0443299,27.4551546 19.221134,26.5206186 C19.3221649,25.914433 20.0041237,25.257732 20.5850515,25.156701 C21.5195876,24.9798969 21.9742268,24.9798969 22.9087629,25.156701 C23.5149485,25.257732 24.1716495,25.9396907 24.2726804,26.5206186 C24.4494845,27.4298969 24.4494845,27.9097938 24.2726804,28.8443299" id="XMLID_158_" fill="#C73F33"></path>
                        <path d="M5.32938144,41.3216495 C5.22835052,41.9278351 4.54639175,42.5845361 3.96546392,42.685567 C3.03092784,42.8623711 2.57628866,42.8623711 1.64175258,42.685567 C1.03556701,42.5845361 0.378865979,41.9025773 0.277835052,41.3216495 C0.101030928,40.3871134 0.101030928,39.9324742 0.277835052,38.9979381 C0.378865979,38.3917526 1.06082474,37.7350515 1.64175258,37.6340206 C2.57628866,37.4572165 3.03092784,37.4572165 3.96546392,37.6340206 C4.57164948,37.7350515 5.22835052,38.4170103 5.32938144,38.9979381 C5.48092784,39.9324742 5.48092784,40.4123711 5.32938144,41.3216495" id="XMLID_157_" fill="#7AA52A"></path>
                        <path d="M29.3242268,50.1871134 C27.8340206,50.1871134 26.6216495,49.656701 25.6871134,48.6969072 C24.3231959,47.3329897 24.3484536,45.6407216 24.3484536,43.3170103 C24.3484536,40.993299 24.2979381,39.3010309 25.6871134,37.9371134 C26.6469072,36.9773196 27.8592784,36.4469072 29.3242268,36.4469072 C31.85,36.4469072 33.8201031,37.8865979 34.3,40.7154639 L31.6226804,40.7154639 C31.3448454,39.6293814 30.6628866,38.7958763 29.3494845,38.7958763 C28.6170103,38.7958763 28.0360825,39.0737113 27.6572165,39.5030928 C27.1520619,40.0840206 27.0005155,40.7154639 27.0005155,43.3170103 C27.0005155,45.9185567 27.1520619,46.5752577 27.6572165,47.1309278 C28.0360825,47.5603093 28.6170103,47.8381443 29.3494845,47.8381443 C30.6881443,47.8381443 31.3701031,47.0046392 31.6226804,45.9185567 L34.3,45.9185567 C33.8201031,48.7474227 31.85,50.1871134 29.3242268,50.1871134" id="XMLID_156_" fill="#FFFFFF"></path>
                        <path d="M42.2561856,39.5283505 C41.8773196,39.0989691 41.2963918,38.7958763 40.5639175,38.7958763 C39.8314433,38.7958763 39.2252577,39.0737113 38.8463918,39.5283505 C38.3412371,40.1092784 38.1896907,40.7154639 38.1896907,43.3170103 C38.1896907,45.9185567 38.3159794,46.55 38.8463918,47.1056701 C39.2252577,47.5350515 39.8314433,47.8381443 40.5639175,47.8381443 C41.2963918,47.8381443 41.8773196,47.5603093 42.2561856,47.1056701 C42.7613402,46.5247423 42.9128866,45.9185567 42.9128866,43.3170103 C42.9128866,40.7154639 42.7613402,40.0840206 42.2561856,39.5283505 M44.2010309,48.6969072 C43.2412371,49.656701 42.1046392,50.1871134 40.5639175,50.1871134 C39.0231959,50.1871134 37.8613402,49.656701 36.9015464,48.6969072 C35.5376289,47.3329897 35.5628866,45.6407216 35.5628866,43.3170103 C35.5628866,40.993299 35.5123711,39.3010309 36.9015464,37.9371134 C37.8613402,36.9773196 39.0231959,36.4469072 40.5639175,36.4469072 C42.1046392,36.4469072 43.2664948,36.9773196 44.2010309,37.9371134 C45.5649485,39.3010309 45.5396907,40.993299 45.5396907,43.3170103 C45.5649485,45.6659794 45.5649485,47.3329897 44.2010309,48.6969072" id="XMLID_153_" fill="#FFFFFF"></path>
                        <path d="M53.9252577,39.5283505 C53.5463918,39.0989691 52.9654639,38.7958763 52.2329897,38.7958763 C51.5005155,38.7958763 50.8943299,39.0737113 50.5154639,39.5283505 C50.0103093,40.1092784 49.8587629,40.7154639 49.8587629,43.3170103 C49.8587629,45.9185567 49.9850515,46.55 50.5154639,47.1056701 C50.8943299,47.5350515 51.5005155,47.8381443 52.2329897,47.8381443 C52.9654639,47.8381443 53.5463918,47.5603093 53.9252577,47.1056701 C54.4304124,46.5247423 54.5819588,45.9185567 54.5819588,43.3170103 C54.5819588,40.7154639 54.4304124,40.0840206 53.9252577,39.5283505 M55.8701031,48.6969072 C54.9103093,49.656701 53.7737113,50.1871134 52.2329897,50.1871134 C50.692268,50.1871134 49.5304124,49.656701 48.5706186,48.6969072 C47.206701,47.3329897 47.2319588,45.6407216 47.2319588,43.3170103 C47.2319588,40.993299 47.1814433,39.3010309 48.5706186,37.9371134 C49.5304124,36.9773196 50.692268,36.4469072 52.2329897,36.4469072 C53.7737113,36.4469072 54.935567,36.9773196 55.8701031,37.9371134 C57.2340206,39.3010309 57.2087629,40.993299 57.2087629,43.3170103 C57.2340206,45.6659794 57.2340206,47.3329897 55.8701031,48.6969072" id="XMLID_150_" fill="#FFFFFF"></path>
                        <path d="M64.2051546,38.9221649 L61.7298969,38.9221649 L61.7298969,42.4835052 L64.2051546,42.4835052 C65.3670103,42.4835052 66.1247423,41.7510309 66.1247423,40.6902062 C66.1247423,39.6546392 65.3670103,38.9221649 64.2051546,38.9221649 Z M66.2510309,50.0860825 L63.6242268,44.7061856 L61.7298969,44.7061856 L61.7298969,50.0860825 L59.1030928,50.0860825 L59.1030928,36.5731959 L64.4072165,36.5731959 C67.1603093,36.5731959 68.8020619,38.442268 68.8020619,40.7154639 C68.8020619,42.6097938 67.6402062,43.7969072 66.3268041,44.2768041 L69.3324742,50.1113402 L66.2510309,50.1113402 L66.2510309,50.0860825 Z" id="XMLID_147_" fill="#FFFFFF"></path>
                        <path d="M77.1876289,39.7556701 C76.7329897,39.2 76.1268041,38.9221649 75.2175258,38.9221649 L73.2221649,38.9221649 L73.2221649,47.7371134 L75.2175258,47.7371134 C76.1268041,47.7371134 76.7329897,47.4592784 77.1876289,46.9036082 C77.6927835,46.2974227 77.7685567,45.3376289 77.7685567,43.2664948 C77.7685567,41.2206186 77.6927835,40.3618557 77.1876289,39.7556701 M79.0314433,48.7726804 C78.1474227,49.656701 76.8592784,50.0608247 75.4701031,50.0608247 L70.5953608,50.0608247 L70.5953608,36.5479381 L75.4701031,36.5479381 C76.8845361,36.5479381 78.1474227,36.9520619 79.0314433,37.8360825 C80.5469072,39.3515464 80.3953608,41.2206186 80.3953608,43.2412371 C80.3953608,45.2871134 80.5469072,47.2572165 79.0314433,48.7726804" id="XMLID_144_" fill="#FFFFFF"></path>
                    </g>
                </g>
                <g id="XMLID_9_" transform="translate(24.752577, 51.273196)" fill="#FFFFFF">
                    <g id="XMLID_68_">
                        <polygon id="XMLID_67_" points="0.025257732 11.593299 0.025257732 2.5257732 5.50618557 2.5257732 5.50618557 3.15721649 0.707216495 3.15721649 0.707216495 6.7185567 4.79896907 6.7185567 4.79896907 7.32474227 0.707216495 7.32474227 0.707216495 10.9618557 5.50618557 10.9618557 5.50618557 11.593299"></polygon>
                        <polygon id="XMLID_66_" points="7.17319588 11.593299 7.17319588 2.5257732 7.85515464 2.5257732 7.85515464 10.9618557 12.6793814 10.9618557 12.6793814 11.593299"></polygon>
                        <path d="M16.7458763,1.91958763 L16.0134021,1.91958763 L17.2510309,0.0505154639 L18.1097938,0.0505154639 L16.7458763,1.91958763 Z M14.1695876,11.593299 L14.1695876,2.5257732 L19.6505155,2.5257732 L19.6505155,3.13195876 L14.8515464,3.13195876 L14.8515464,6.69329897 L18.943299,6.69329897 L18.943299,7.29948454 L14.8515464,7.29948454 L14.8515464,10.9365979 L19.6505155,10.9365979 L19.6505155,11.5427835 L14.1695876,11.5427835 L14.1695876,11.593299 Z" id="XMLID_61_"></path>
                        <polygon id="XMLID_60_" points="31.2185567 3.15721649 31.2185567 11.593299 30.5113402 11.593299 30.5113402 3.15721649 27.8340206 3.15721649 27.8340206 2.5257732 33.921134 2.5257732 33.921134 3.15721649"></polygon>
                        <rect id="XMLID_59_" x="43.2664948" y="2.5257732" width="1" height="9.04226804"></rect>
                        <polygon id="XMLID_58_" points="71.1257732 11.593299 65.8974227 3.7128866 65.8974227 11.593299 65.2154639 11.593299 65.2154639 2.5257732 65.8974227 2.5257732 71.1257732 10.3809278 71.1257732 2.5257732 71.807732 2.5257732 71.807732 11.593299"></polygon>
                        <path d="M76.8592784,3.46030928 L74.9649485,8.78969072 L78.7536082,8.78969072 L76.8592784,3.46030928 Z M79.7639175,11.593299 L78.9809278,9.39587629 L74.7628866,9.39587629 L73.9798969,11.593299 L73.2474227,11.593299 L76.5814433,2.55103093 L77.1876289,2.55103093 L80.5216495,11.593299 L79.7639175,11.593299 Z" id="XMLID_50_"></path>
                        <rect id="XMLID_49_" x="89.3113402" y="2.5257732" width="1" height="9.04226804"></rect>
                        <polygon id="XMLID_48_" points="105.930928 11.593299 100.727835 3.7128866 100.727835 11.593299 100.020619 11.593299 100.020619 2.5257732 100.727835 2.5257732 105.930928 10.3809278 105.930928 2.5257732 106.612887 2.5257732 106.612887 11.593299"></polygon>
                        <path d="M111.689691,3.46030928 L109.795361,8.78969072 L113.584021,8.78969072 L111.689691,3.46030928 Z M114.59433,11.593299 L113.81134,9.39587629 L109.593299,9.39587629 L108.810309,11.593299 L108.077835,11.593299 L111.386598,2.5257732 L111.992784,2.5257732 L115.326804,11.5680412 L114.59433,11.5680412 L114.59433,11.593299 Z" id="XMLID_45_"></path>
                        <polygon id="XMLID_44_" points="116.741237 11.593299 116.741237 2.5257732 117.448454 2.5257732 117.448454 10.9618557 122.247423 10.9618557 122.247423 11.593299"></polygon>
                    </g>
                    <g id="XMLID_8_" transform="translate(20.711340, 2.273196)">
                        <path d="M3.18247423,9.39587629 C2.32371134,9.39587629 1.51546392,9.06752577 0.909278351,8.46134021 C0.0757731959,7.62783505 0.0757731959,6.84484536 0.0757731959,4.79896907 C0.0757731959,2.75309278 0.0757731959,1.94484536 0.909278351,1.13659794 C1.51546392,0.530412371 2.32371134,0.202061856 3.18247423,0.202061856 C4.79896907,0.202061856 5.96082474,1.21237113 6.26391753,2.85412371 L5.55670103,2.85412371 C5.27886598,1.61649485 4.39484536,0.833505155 3.18247423,0.833505155 C2.5257732,0.833505155 1.91958763,1.08608247 1.46494845,1.54072165 C0.808247423,2.19742268 0.757731959,2.87938144 0.757731959,4.8242268 C0.757731959,6.76907216 0.808247423,7.47628866 1.46494845,8.10773196 C1.91958763,8.56237113 2.5257732,8.81494845 3.18247423,8.81494845 C4.39484536,8.81494845 5.30412371,8.03195876 5.58195876,6.7943299 L6.26391753,6.7943299 C5.96082474,8.38556701 4.74845361,9.39587629 3.18247423,9.39587629" id="XMLID_3_"></path>
                        <path d="M18.0592784,0.884020619 L15.4072165,0.884020619 L15.4072165,4.54639175 L18.0845361,4.54639175 C19.2463918,4.54639175 20.0798969,3.96546392 20.0798969,2.72783505 C20.0546392,1.46494845 19.221134,0.884020619 18.0592784,0.884020619 Z M20.0546392,9.32010309 L17.8824742,5.15257732 L15.4072165,5.15257732 L15.4072165,9.32010309 L14.7252577,9.32010309 L14.7252577,0.25257732 L18.1603093,0.25257732 C19.6252577,0.25257732 20.7618557,1.11134021 20.7618557,2.67731959 C20.7618557,4.01597938 19.9536082,4.9 18.6654639,5.12731959 L20.8628866,9.29484536 L20.0546392,9.29484536 L20.0546392,9.32010309 Z" id="XMLID_4_"></path>
                        <path d="M76.0257732,1.49020619 C75.571134,1.03556701 74.9649485,0.782989691 74.3082474,0.782989691 C73.6515464,0.782989691 73.0453608,1.03556701 72.5907216,1.49020619 C71.9340206,2.14690722 71.8835052,2.82886598 71.8835052,4.77371134 C71.8835052,6.7185567 71.9340206,7.4257732 72.5907216,8.05721649 C73.0453608,8.51185567 73.6515464,8.76443299 74.3082474,8.76443299 C74.9649485,8.76443299 75.571134,8.51185567 76.0257732,8.05721649 C76.6824742,7.40051546 76.7329897,6.7185567 76.7329897,4.77371134 C76.7329897,2.85412371 76.6824742,2.14690722 76.0257732,1.49020619 M76.5814433,8.46134021 C75.9752577,9.06752577 75.1670103,9.39587629 74.3082474,9.39587629 C73.4494845,9.39587629 72.6412371,9.06752577 72.0350515,8.46134021 C71.2015464,7.62783505 71.2015464,6.84484536 71.2015464,4.79896907 C71.2015464,2.75309278 71.2268041,1.94484536 72.0350515,1.13659794 C72.6412371,0.530412371 73.4494845,0.202061856 74.3082474,0.202061856 C75.1670103,0.202061856 75.9752577,0.530412371 76.5814433,1.13659794 C77.4149485,1.97010309 77.4149485,2.75309278 77.4149485,4.79896907 C77.4149485,6.81958763 77.4149485,7.62783505 76.5814433,8.46134021" id="XMLID_7_"></path>
                        <path d="M63.5737113,9.39587629 C62.7149485,9.39587629 61.906701,9.06752577 61.3005155,8.46134021 C60.4670103,7.62783505 60.4670103,6.84484536 60.4670103,4.79896907 C60.4670103,2.75309278 60.4670103,1.94484536 61.3005155,1.13659794 C61.906701,0.530412371 62.7149485,0.202061856 63.5737113,0.202061856 C65.1902062,0.202061856 66.3520619,1.21237113 66.6551546,2.85412371 L65.9479381,2.85412371 C65.6701031,1.61649485 64.7860825,0.833505155 63.5737113,0.833505155 C62.9170103,0.833505155 62.3108247,1.08608247 61.8561856,1.54072165 C61.1994845,2.19742268 61.1489691,2.87938144 61.1489691,4.8242268 C61.1489691,6.76907216 61.1994845,7.47628866 61.8561856,8.10773196 C62.3108247,8.56237113 62.9170103,8.81494845 63.5737113,8.81494845 C64.7860825,8.81494845 65.6953608,8.03195876 65.9731959,6.7943299 L66.6551546,6.7943299 C66.3520619,8.38556701 65.1396907,9.39587629 63.5737113,9.39587629" id="XMLID_18_"></path>
                        <path d="M28.2886598,9.39587629 C27.4298969,9.39587629 26.6216495,9.06752577 26.0154639,8.46134021 C25.1819588,7.62783505 25.1819588,6.84484536 25.1819588,4.79896907 C25.1819588,2.75309278 25.1819588,1.94484536 26.0154639,1.13659794 C26.6216495,0.530412371 27.4298969,0.202061856 28.2886598,0.202061856 C29.9051546,0.202061856 31.0670103,1.21237113 31.3701031,2.85412371 L30.6628866,2.85412371 C30.3850515,1.61649485 29.5010309,0.833505155 28.2886598,0.833505155 C27.6319588,0.833505155 27.0257732,1.08608247 26.571134,1.54072165 C25.914433,2.19742268 25.8639175,2.87938144 25.8639175,4.8242268 C25.8639175,6.76907216 25.914433,7.47628866 26.571134,8.10773196 C27.0257732,8.56237113 27.6319588,8.81494845 28.2886598,8.81494845 C29.5010309,8.81494845 30.4103093,8.03195876 30.6881443,6.7943299 L31.3701031,6.7943299 C31.0670103,8.38556701 29.8798969,9.39587629 28.2886598,9.39587629" id="XMLID_19_"></path>
                        <path d="M37.7603093,1.49020619 C37.3056701,1.03556701 36.6994845,0.782989691 36.0427835,0.782989691 C35.3860825,0.782989691 34.7798969,1.03556701 34.3252577,1.49020619 C33.6685567,2.14690722 33.6180412,2.82886598 33.6180412,4.77371134 C33.6180412,6.7185567 33.6685567,7.4257732 34.3252577,8.05721649 C34.7798969,8.51185567 35.3860825,8.76443299 36.0427835,8.76443299 C36.6994845,8.76443299 37.3056701,8.51185567 37.7603093,8.05721649 C38.4170103,7.40051546 38.4675258,6.7185567 38.4675258,4.77371134 C38.4675258,2.85412371 38.4170103,2.14690722 37.7603093,1.49020619 M38.3159794,8.46134021 C37.7097938,9.06752577 36.9015464,9.39587629 36.0427835,9.39587629 C35.1840206,9.39587629 34.3757732,9.06752577 33.7695876,8.46134021 C32.9360825,7.62783505 32.9360825,6.84484536 32.9360825,4.79896907 C32.9360825,2.75309278 32.9613402,1.94484536 33.7695876,1.13659794 C34.3757732,0.530412371 35.1840206,0.202061856 36.0427835,0.202061856 C36.9015464,0.202061856 37.7097938,0.530412371 38.3159794,1.13659794 C39.1494845,1.97010309 39.1494845,2.75309278 39.1494845,4.79896907 C39.1494845,6.81958763 39.1494845,7.62783505 38.3159794,8.46134021" id="XMLID_20_"></path>
                    </g>
                </g>
            </g>
        </g>
    </g>
</svg>